<?xml version="1.0" encoding="UTF-8"?>
<!-- Copyright (C) 2025 Robin L. M. Cheung, MBA. All rights reserved. -->
<svg xmlns="http://www.w3.org/2000/svg" width="128" height="128" viewBox="0 0 128 128">
  <defs>
    <linearGradient id="grad1" x1="0%" y1="0%" x2="100%" y2="100%">
      <stop offset="0%" style="stop-color:#3584e4;stop-opacity:1" />
      <stop offset="100%" style="stop-color:#1c71d8;stop-opacity:1" />
    </linearGradient>
  </defs>
  <!-- Background circle -->
  <circle cx="64" cy="64" r="56" fill="url(#grad1)"/>
  <!-- Chat bubble -->
  <path d="M32 40 h64 a8 8 0 0 1 8 8 v32 a8 8 0 0 1 -8 8 h-48 l-16 16 v-16 a8 8 0 0 1 -8 -8 v-32 a8 8 0 0 1 8 -8 z" 
        fill="white" opacity="0.95"/>
  <!-- Text lines representing chat -->
  <rect x="40" y="52" width="48" height="4" rx="2" fill="#3584e4" opacity="0.6"/>
  <rect x="40" y="62" width="36" height="4" rx="2" fill="#3584e4" opacity="0.6"/>
  <rect x="40" y="72" width="42" height="4" rx="2" fill="#3584e4" opacity="0.6"/>
</svg>
